<svg width="270" height="270" viewBox="0 0 270 270" fill="none" xmlns="http://www.w3.org/2000/svg">
<g filter="url(#filter0_i_155_1620)">
<path d="M270 135C270 170.804 255.777 205.142 230.459 230.459C205.142 255.777 170.804 270 135 270C99.1958 270 64.858 255.777 39.5406 230.459C14.2232 205.142 5.40629e-06 170.804 0 135L135 135H270Z" fill="#0565F7"/>
<path d="M270 135C270 170.804 255.777 205.142 230.459 230.459C205.142 255.777 170.804 270 135 270C99.1958 270 64.858 255.777 39.5406 230.459C14.2232 205.142 5.40629e-06 170.804 0 135L135 135H270Z" fill="url(#paint0_linear_155_1620)"/>
</g>
<g filter="url(#filter1_i_155_1620)">
<path d="M1.18021e-05 135C1.49322e-05 99.1957 14.2232 64.858 39.5406 39.5406C64.858 14.2232 99.1958 -1.49322e-05 135 -1.18021e-05C170.804 -8.67197e-06 205.142 14.2232 230.459 39.5406C255.777 64.858 270 99.1958 270 135L135 135L1.18021e-05 135Z" fill="#0565F7"/>
<path d="M1.18021e-05 135C1.49322e-05 99.1957 14.2232 64.858 39.5406 39.5406C64.858 14.2232 99.1958 -1.49322e-05 135 -1.18021e-05C170.804 -8.67197e-06 205.142 14.2232 230.459 39.5406C255.777 64.858 270 99.1958 270 135L135 135L1.18021e-05 135Z" fill="url(#paint1_linear_155_1620)"/>
</g>
<defs>
<filter id="filter0_i_155_1620" x="0" y="135" width="270" height="135" filterUnits="userSpaceOnUse" color-interpolation-filters="sRGB">
<feFlood flood-opacity="0" result="BackgroundImageFix"/>
<feBlend mode="normal" in="SourceGraphic" in2="BackgroundImageFix" result="shape"/>
<feColorMatrix in="SourceAlpha" type="matrix" values="0 0 0 0 0 0 0 0 0 0 0 0 0 0 0 0 0 0 127 0" result="hardAlpha"/>
<feOffset/>
<feGaussianBlur stdDeviation="25"/>
<feComposite in2="hardAlpha" operator="arithmetic" k2="-1" k3="1"/>
<feColorMatrix type="matrix" values="0 0 0 0 1 0 0 0 0 1 0 0 0 0 1 0 0 0 1 0"/>
<feBlend mode="normal" in2="shape" result="effect1_innerShadow_155_1620"/>
</filter>
<filter id="filter1_i_155_1620" x="0" y="0" width="270" height="135" filterUnits="userSpaceOnUse" color-interpolation-filters="sRGB">
<feFlood flood-opacity="0" result="BackgroundImageFix"/>
<feBlend mode="normal" in="SourceGraphic" in2="BackgroundImageFix" result="shape"/>
<feColorMatrix in="SourceAlpha" type="matrix" values="0 0 0 0 0 0 0 0 0 0 0 0 0 0 0 0 0 0 127 0" result="hardAlpha"/>
<feOffset/>
<feGaussianBlur stdDeviation="25"/>
<feComposite in2="hardAlpha" operator="arithmetic" k2="-1" k3="1"/>
<feColorMatrix type="matrix" values="0 0 0 0 1 0 0 0 0 1 0 0 0 0 1 0 0 0 1 0"/>
<feBlend mode="normal" in2="shape" result="effect1_innerShadow_155_1620"/>
</filter>
<linearGradient id="paint0_linear_155_1620" x1="270" y1="135" x2="0" y2="135" gradientUnits="userSpaceOnUse">
<stop stop-color="#0565F7"/>
<stop offset="1" stop-color="#87B7FF"/>
</linearGradient>
<linearGradient id="paint1_linear_155_1620" x1="1.18021e-05" y1="135" x2="270" y2="135" gradientUnits="userSpaceOnUse">
<stop stop-color="#0565F7"/>
<stop offset="1" stop-color="#87B7FF"/>
</linearGradient>
</defs>
</svg>
