<svg width="44" height="44" viewBox="0 0 44 44" fill="none" xmlns="http://www.w3.org/2000/svg">
<path d="M14.2085 11C13.449 11 12.8334 11.6156 12.8334 12.375V20.625C12.8334 21.3844 13.449 22 14.2085 22H24.2919C25.0513 22 25.6669 21.3844 25.6669 20.625V12.375C25.6669 11.6156 25.0513 11 24.2919 11H14.2085ZM15.5835 19.25V13.75H22.9169V19.25H15.5835ZM12.3751 5.5C9.59062 5.5 7.33336 7.75723 7.33336 10.5417V37.5833H6.87502C6.11562 37.5833 5.5 38.1989 5.5 38.9583C5.5 39.7177 6.11562 40.3333 6.87502 40.3333H31.6254C32.3848 40.3333 33.0004 39.7177 33.0004 38.9583C33.0004 38.1989 32.3848 37.5833 31.6254 37.5833H31.167V34.278C31.8565 34.633 32.6386 34.8334 33.4674 34.8334C36.2468 34.8334 38.5 32.5802 38.5 29.8009V19.0972C38.5 18.0064 38.1462 16.9449 37.4917 16.0722L35.475 13.3834C35.0193 12.7758 34.1575 12.6527 33.5499 13.1084C32.9424 13.564 32.8193 14.4258 33.2749 15.0334L35.2916 17.7222C35.5891 18.1189 35.75 18.6014 35.75 19.0972V29.8009C35.75 31.0614 34.728 32.0834 33.4674 32.0834C32.2068 32.0834 31.1849 31.0614 31.1849 29.8009V26.5834C31.1849 26.5076 31.1788 26.4333 31.167 26.3609V10.5417C31.167 7.75723 28.9098 5.5 26.1253 5.5H12.3751ZM28.417 37.5833H10.0834V10.5417C10.0834 9.27601 11.1094 8.25 12.3751 8.25H26.1253C27.3909 8.25 28.417 9.27601 28.417 10.5417V37.5833Z" fill="white"/>
</svg>
