<svg width="44" height="44" viewBox="0 0 44 44" fill="none" xmlns="http://www.w3.org/2000/svg">
<path d="M22.9871 7.87326C23.5796 7.4264 24.1671 7.08321 24.6929 6.84145C24.8519 10.7412 26.7586 13.6736 28.5938 16.2637C28.7617 16.5006 28.9283 16.7341 29.0929 16.9648C31.0793 19.7489 32.7803 22.133 32.9659 25.2891C33.1797 28.9225 32.2735 31.9943 30.5166 34.1322C28.781 36.2443 26.1042 37.5834 22.4586 37.5834C18.6795 37.5834 15.8394 36.6139 13.8574 34.9879C11.8846 33.3695 10.6238 30.9881 10.2027 27.8891C9.78837 24.8401 10.5262 22.6732 11.3233 21.2836C11.4801 21.0103 11.6401 20.7654 11.7957 20.5487L12.3732 21.6455C13.3835 23.5642 15.7272 24.3446 17.686 23.4146C20.0797 22.278 20.5904 19.3591 19.8304 17.3096C19.2986 15.8758 19.0156 14.125 19.6309 12.3721C20.3209 10.4065 21.6307 8.89633 22.9871 7.87326ZM11.2868 17.0924L11.2824 17.0957L11.2752 17.1012L11.2561 17.1158C11.2415 17.1271 11.2229 17.1417 11.2008 17.1595C11.1564 17.1952 11.0976 17.244 11.0266 17.3061C10.8847 17.4301 10.6937 17.6077 10.4728 17.8403C10.0316 18.3047 9.46691 18.9929 8.93784 19.9153C7.8705 21.7761 6.97358 24.5494 7.47774 28.2594C7.97511 31.9196 9.5121 34.9802 12.1132 37.114C14.705 39.2403 18.2149 40.3334 22.4586 40.3334C26.8357 40.3334 30.328 38.6932 32.6413 35.8782C34.9333 33.0891 35.9558 29.2859 35.7112 25.1276C35.4765 21.1388 33.3038 18.1123 31.3846 15.4389C31.1992 15.1808 31.0163 14.926 30.8377 14.6739C28.7442 11.7191 27.091 8.99539 27.4926 5.18585C27.5335 4.79823 27.4079 4.41149 27.1472 4.12179C26.8864 3.8321 26.515 3.66669 26.1252 3.66669C25.4249 3.66669 24.6236 3.88342 23.8477 4.20933C23.0479 4.54528 22.1805 5.03712 21.3311 5.67775C19.6359 6.95639 17.941 8.88367 17.0362 11.4613C16.1336 14.0325 16.5909 16.4833 17.252 18.2659C17.6861 19.4365 17.2153 20.5938 16.5065 20.9304C15.8797 21.228 15.1298 20.9782 14.8065 20.3643L13.3264 17.5533C13.1392 17.1976 12.8057 16.9417 12.4136 16.8529C12.0216 16.7641 11.6091 16.8522 11.2868 17.0924Z" fill="white"/>
</svg>
