<svg width="44" height="44" viewBox="0 0 44 44" fill="none" xmlns="http://www.w3.org/2000/svg">
<path d="M14.5457 29.4541C15.0827 29.9911 15.0827 30.8617 14.5457 31.3986C14.0088 31.9356 13.1382 31.9356 12.6012 31.3986C7.41048 26.2079 7.41048 17.7921 12.6012 12.6014C15.9834 9.21915 20.7347 8.04238 25.0658 9.0651C25.8049 9.23961 26.2625 9.98022 26.088 10.7193C25.9135 11.4584 25.1729 11.916 24.4338 11.7415C20.9914 10.9286 17.2262 11.8654 14.5457 14.5459C10.429 18.6627 10.429 25.3373 14.5457 29.4541ZM32.7944 16.7594C33.5112 16.5088 34.2955 16.8867 34.5462 17.6035C36.1775 22.2682 35.1309 27.6662 31.3985 31.3986C30.8615 31.9356 29.9909 31.9356 29.4539 31.3986C28.9169 30.8617 28.9169 29.9911 29.4539 29.4541C32.4115 26.4965 33.2463 22.2169 31.9504 18.5113C31.6997 17.7944 32.0776 17.0101 32.7944 16.7594ZM29.1116 12.2234C29.5278 11.8671 30.138 11.8553 30.5677 12.1953C30.9974 12.5352 31.1263 13.1318 30.8753 13.6188L30.6383 14.0775C30.4872 14.3697 30.2705 14.7881 30.008 15.2933C29.4831 16.3034 28.7748 17.6612 28.0416 19.0506C27.3089 20.439 26.5492 21.8632 25.9222 23.0045C25.609 23.5746 25.3259 24.0797 25.0942 24.4768C24.8788 24.846 24.667 25.1939 24.5093 25.3932C23.3314 26.882 21.1695 27.1341 19.6807 25.9562C18.1918 24.7783 17.9397 22.6164 19.1176 21.1276C19.2753 20.9283 19.5651 20.6421 19.8749 20.3475C20.208 20.0307 20.6344 19.6389 21.1172 19.203C22.0836 18.3302 23.2948 17.2633 24.4774 16.2308C25.6608 15.1976 26.8192 14.1959 27.6815 13.4527C28.1128 13.081 28.4701 12.7739 28.7197 12.5596L29.1116 12.2234ZM40.3332 22C40.3332 32.1252 32.1251 40.3334 21.9998 40.3334C11.8746 40.3334 3.6665 32.1252 3.6665 22C3.6665 11.8748 11.8746 3.66669 21.9998 3.66669C32.1251 3.66669 40.3332 11.8748 40.3332 22ZM6.4165 22C6.4165 30.6065 13.3934 37.5834 21.9998 37.5834C30.6063 37.5834 37.5832 30.6065 37.5832 22C37.5832 13.3936 30.6063 6.41669 21.9998 6.41669C13.3934 6.41669 6.4165 13.3936 6.4165 22Z" fill="white"/>
</svg>
