<svg width="56" height="56" viewBox="0 0 56 56" fill="none" xmlns="http://www.w3.org/2000/svg">
<path d="M45.5 28C45.5 18.335 37.665 10.5 28 10.5C23.4055 10.5 19.2245 12.2706 16.1022 15.1667H19.25C20.2165 15.1667 21 15.9502 21 16.9167C21 17.8832 20.2165 18.6667 19.25 18.6667H12.25C11.2835 18.6667 10.5 17.8832 10.5 16.9167V9.91667C10.5 8.95017 11.2835 8.16667 12.25 8.16667C13.2165 8.16667 14 8.95017 14 9.91667V12.3473C17.7153 9.02197 22.6215 7 28 7C39.598 7 49 16.402 49 28C49 39.598 39.598 49 28 49C16.402 49 7 39.598 7 28C7 26.9073 7.08345 25.8342 7.24433 24.7865C7.37567 23.9312 8.13454 23.3333 8.99985 23.3333C10.0709 23.3333 10.8464 24.3559 10.6895 25.4153C10.5647 26.2588 10.5 27.1218 10.5 28C10.5 37.665 18.335 45.5 28 45.5C37.665 45.5 45.5 37.665 45.5 28ZM29.1667 18.0833C29.1667 17.1168 28.3832 16.3333 27.4167 16.3333C26.4502 16.3333 25.6667 17.1168 25.6667 18.0833V28.5833C25.6667 29.5498 26.4502 30.3333 27.4167 30.3333H33.25C34.2165 30.3333 35 29.5498 35 28.5833C35 27.6168 34.2165 26.8333 33.25 26.8333H29.1667V18.0833Z" fill="white"/>
</svg>
