<svg width="55" height="55" viewBox="0 0 55 55" fill="none" xmlns="http://www.w3.org/2000/svg">
<path d="M17.0158 6.48659C17.4223 5.34539 18.5028 4.58331 19.7142 4.58331H34.5038C36.459 4.58331 37.8397 6.49885 37.2214 8.35376L33.8949 18.3333H42.967C45.4973 18.3333 46.785 21.374 45.0243 23.1912L19.6763 49.3534C17.2615 51.8457 13.0947 49.5968 13.8531 46.2103L16.7617 33.2209L13.1673 33.2072C10.4019 33.1966 8.4768 30.4561 9.40485 27.851L17.0158 6.48659ZM20.1183 8.02081L12.643 29.0045C12.5104 29.3767 12.7854 29.7682 13.1805 29.7697L18.9126 29.7917C19.4333 29.7937 19.925 30.0316 20.2497 30.4386C20.5744 30.8456 20.697 31.3779 20.5833 31.886L17.2075 46.9614L41.6142 21.7708H31.5102C30.9577 21.7708 30.4389 21.5052 30.1159 21.057C29.7929 20.6088 29.705 20.0327 29.8797 19.5085L33.7089 8.02081H20.1183Z" fill="white"/>
</svg>
