<svg width="20" height="20" viewBox="0 0 20 20" fill="none" xmlns="http://www.w3.org/2000/svg">
<path d="M2.0835 3.54163C2.0835 3.19645 2.36332 2.91663 2.7085 2.91663H3.17372C3.96577 2.91663 4.44002 3.44912 4.7112 3.94412C4.89197 4.27408 5.02273 4.65677 5.12501 5.00325C5.15272 5.00107 5.18078 4.99996 5.20917 4.99996H15.6236C16.3154 4.99996 16.815 5.66197 16.6253 6.32729L15.1022 11.6682C14.8215 12.6526 13.922 13.3314 12.8984 13.3314H7.94164C6.90957 13.3314 6.00483 12.6415 5.73169 11.6463L5.09794 9.33708L4.04911 5.79644L4.04741 5.79024C3.91766 5.31705 3.79589 4.875 3.61494 4.54471C3.43922 4.22396 3.29913 4.16663 3.17372 4.16663H2.7085C2.36332 4.16663 2.0835 3.8868 2.0835 3.54163ZM6.31085 9.03351L6.93711 11.3155C7.06127 11.7678 7.47252 12.0814 7.94164 12.0814H12.8984C13.3637 12.0814 13.7725 11.7729 13.9001 11.3254L15.3475 6.24996H5.48807L6.29938 8.98897C6.30378 9.0038 6.3076 9.01865 6.31085 9.03351ZM9.16683 15.8333C9.16683 16.7538 8.42064 17.5 7.50016 17.5C6.57969 17.5 5.8335 16.7538 5.8335 15.8333C5.8335 14.9128 6.57969 14.1666 7.50016 14.1666C8.42064 14.1666 9.16683 14.9128 9.16683 15.8333ZM7.91683 15.8333C7.91683 15.6032 7.73028 15.4166 7.50016 15.4166C7.27004 15.4166 7.0835 15.6032 7.0835 15.8333C7.0835 16.0634 7.27004 16.25 7.50016 16.25C7.73028 16.25 7.91683 16.0634 7.91683 15.8333ZM15.0002 15.8333C15.0002 16.7538 14.254 17.5 13.3335 17.5C12.413 17.5 11.6668 16.7538 11.6668 15.8333C11.6668 14.9128 12.413 14.1666 13.3335 14.1666C14.254 14.1666 15.0002 14.9128 15.0002 15.8333ZM13.7502 15.8333C13.7502 15.6032 13.5636 15.4166 13.3335 15.4166C13.1034 15.4166 12.9168 15.6032 12.9168 15.8333C12.9168 16.0634 13.1034 16.25 13.3335 16.25C13.5636 16.25 13.7502 16.0634 13.7502 15.8333Z" fill="white"/>
</svg>
