<svg width="20" height="20" viewBox="0 0 20 20" fill="none" xmlns="http://www.w3.org/2000/svg">
<path d="M4.58317 6.66671C4.58317 5.51611 5.51591 4.58337 6.6665 4.58337C7.8171 4.58337 8.74984 5.51611 8.74984 6.66671C8.74984 7.8173 7.8171 8.75004 6.6665 8.75004C5.51591 8.75004 4.58317 7.8173 4.58317 6.66671ZM6.6665 3.33337C4.82556 3.33337 3.33317 4.82576 3.33317 6.66671C3.33317 8.50766 4.82556 10 6.6665 10C8.50745 10 9.99984 8.50766 9.99984 6.66671C9.99984 4.82576 8.50745 3.33337 6.6665 3.33337ZM12.9165 7.50004C12.9165 6.80968 13.4761 6.25004 14.1665 6.25004C14.8569 6.25004 15.4165 6.80968 15.4165 7.50004C15.4165 8.1904 14.8569 8.75004 14.1665 8.75004C13.4761 8.75004 12.9165 8.1904 12.9165 7.50004ZM14.1665 5.00004C12.7858 5.00004 11.6665 6.11933 11.6665 7.50004C11.6665 8.88075 12.7858 10 14.1665 10C15.5472 10 16.6665 8.88075 16.6665 7.50004C16.6665 6.11933 15.5472 5.00004 14.1665 5.00004ZM11.8735 15.8648C12.4587 16.1027 13.2096 16.25 14.1673 16.25C16.0692 16.25 17.1554 15.6689 17.7481 14.9518C18.0357 14.6037 18.182 14.2523 18.2562 13.983C18.2933 13.8485 18.3126 13.7334 18.3228 13.6475C18.3279 13.6045 18.3307 13.5685 18.3322 13.5406C18.333 13.5267 18.3334 13.5148 18.3337 13.505L18.3339 13.4919L18.334 13.4866L18.334 13.4843L18.334 13.4822C18.334 12.4795 17.5212 11.6667 16.5185 11.6667H11.8161C11.7933 11.6667 11.7705 11.6671 11.7479 11.668C12.0762 12.0105 12.3154 12.4392 12.4282 12.9167H16.5185C16.8281 12.9167 17.0796 13.1655 17.0839 13.4741C17.0836 13.4789 17.0829 13.488 17.0814 13.501C17.0777 13.5323 17.0694 13.5847 17.0511 13.651C17.0146 13.7835 16.9396 13.9678 16.7845 14.1555C16.4918 14.5097 15.8071 15 14.1673 15C13.3506 15 12.7708 14.8784 12.3584 14.7125C12.2691 15.046 12.1208 15.4482 11.8735 15.8648ZM3.5415 11.6667C2.50597 11.6667 1.6665 12.5062 1.6665 13.5417V13.7509L1.66651 13.7519L1.66652 13.7541L1.66656 13.7593L1.6668 13.7731C1.66704 13.7839 1.66748 13.7977 1.66825 13.8143C1.6698 13.8475 1.67271 13.8921 1.67815 13.9465C1.68901 14.0551 1.71011 14.2042 1.75121 14.3803C1.83313 14.7314 1.99696 15.2004 2.32636 15.671C3.00872 16.6458 4.30966 17.5 6.6665 17.5C9.02335 17.5 10.3243 16.6458 11.0066 15.671C11.3361 15.2004 11.4999 14.7314 11.5818 14.3803C11.6229 14.2042 11.644 14.0551 11.6549 13.9465C11.6603 13.8921 11.6632 13.8475 11.6648 13.8143C11.6655 13.7977 11.666 13.7839 11.6662 13.7731L11.6664 13.7593L11.6665 13.7541L11.6665 13.7519L11.6665 13.5417C11.6665 12.5062 10.827 11.6667 9.7915 11.6667H3.5415ZM2.91689 13.756L2.9165 13.7456V13.5417C2.9165 13.1965 3.19633 12.9167 3.5415 12.9167H9.7915C10.1367 12.9167 10.4165 13.1965 10.4165 13.5417V13.7456L10.4161 13.756C10.4155 13.7686 10.4142 13.7911 10.4111 13.8221C10.4048 13.8844 10.3918 13.9795 10.3645 14.0963C10.3097 14.3312 10.2001 14.6435 9.98261 14.9541C9.57122 15.5418 8.68466 16.25 6.6665 16.25C4.64835 16.25 3.76179 15.5418 3.3504 14.9541C3.13293 14.6435 3.02332 14.3312 2.96851 14.0963C2.94126 13.9795 2.92817 13.8844 2.92195 13.8221C2.91884 13.7911 2.91748 13.7686 2.91689 13.756Z" fill="white"/>
</svg>
