<svg width="20" height="20" viewBox="0 0 20 20" fill="none" xmlns="http://www.w3.org/2000/svg">
<path d="M11.2087 2.10995C10.5105 1.52113 9.4895 1.52113 8.79125 2.10995L3.16627 6.85337C2.74379 7.20964 2.5 7.73412 2.5 8.28676V16.045C2.5 16.8504 3.15292 17.5033 3.95833 17.5033H16.0417C16.8471 17.5033 17.5 16.8504 17.5 16.045V8.28676C17.5 7.73412 17.2562 7.20964 16.8337 6.85337L11.2087 2.10995ZM9.59708 3.06554C9.82983 2.86926 10.1702 2.86926 10.4029 3.06554L16.0279 7.80896C16.1687 7.92771 16.25 8.10255 16.25 8.28676V16.045C16.25 16.16 16.1567 16.2533 16.0417 16.2533H3.95833C3.84327 16.2533 3.75 16.16 3.75 16.045V8.28676C3.75 8.10255 3.83127 7.92771 3.97209 7.80896L9.59708 3.06554Z" fill="white"/>
</svg>
