<svg width="20" height="20" viewBox="0 0 20 20" fill="none" xmlns="http://www.w3.org/2000/svg">
<path d="M8.54167 2.91663H11.4583C11.8035 2.91663 12.0833 3.19645 12.0833 3.54163V4.99996H7.91667V3.54163C7.91667 3.19645 8.19649 2.91663 8.54167 2.91663ZM6.66667 3.54163V4.99996H5.20833C3.71256 4.99996 2.5 6.21252 2.5 7.70829V13.9583C2.5 15.4541 3.71256 16.6666 5.20833 16.6666H14.7917C16.2874 16.6666 17.5 15.4541 17.5 13.9583V7.70829C17.5 6.21252 16.2874 4.99996 14.7917 4.99996H13.3333V3.54163C13.3333 2.50609 12.4939 1.66663 11.4583 1.66663H8.54167C7.50613 1.66663 6.66667 2.50609 6.66667 3.54163ZM16.25 7.70829V8.95829C16.25 9.76371 15.5971 10.4166 14.7917 10.4166H11.6667V9.99996C11.6667 9.53972 11.2936 9.16663 10.8333 9.16663H9.16667C8.70643 9.16663 8.33333 9.53972 8.33333 9.99996V10.4166H5.20833C4.40292 10.4166 3.75 9.76371 3.75 8.95829V7.70829C3.75 6.90288 4.40292 6.24996 5.20833 6.24996H14.7917C15.5971 6.24996 16.25 6.90288 16.25 7.70829ZM16.25 11.2409V13.9583C16.25 14.7637 15.5971 15.4166 14.7917 15.4166H5.20833C4.40292 15.4166 3.75 14.7637 3.75 13.9583V11.2409C4.17096 11.5104 4.6714 11.6666 5.20833 11.6666H8.33333C8.33333 12.1269 8.70643 12.5 9.16667 12.5H10.8333C11.2936 12.5 11.6667 12.1269 11.6667 11.6666H14.7917C15.3286 11.6666 15.829 11.5104 16.25 11.2409Z" fill="white"/>
</svg>
