<svg width="20" height="20" viewBox="0 0 20 20" fill="none" xmlns="http://www.w3.org/2000/svg">
<path d="M12.7112 1.66663C13.6764 1.66663 14.4713 2.39599 14.5748 3.33366L15.6312 3.33329C16.3964 3.33329 17.0239 3.92255 17.0847 4.67202L17.0895 4.79163V7.29163C17.0895 8.73582 15.9592 9.916 14.5349 9.99567L14.3597 10.0006C13.8031 11.7424 12.2776 13.0512 10.4171 13.2931L10.4166 14.5833H11.8778C13.322 14.5833 14.5022 15.7137 14.5819 17.1379L14.5862 17.2916V17.7083C14.5862 18.0247 14.351 18.2862 14.046 18.3276L13.9612 18.3333H5.6253C5.30889 18.3333 5.04739 18.0982 5.00601 17.7931L5.0003 17.7083V17.2916C5.0003 15.8474 6.13068 14.6673 7.55495 14.5876L7.70864 14.5833H9.16658L9.16687 13.2927C7.30746 13.05 5.78307 11.7416 5.2268 10.0006L5.20492 9.99996C3.70914 9.99996 2.49658 8.7874 2.49658 7.29163V4.79163C2.49658 3.98621 3.1495 3.33329 3.95492 3.33329L5.01171 3.33366C5.11517 2.39599 5.91006 1.66663 6.8753 1.66663H12.7112ZM11.8778 15.8333H7.70864C7.01717 15.8333 6.43811 16.3145 6.28809 16.9604L6.26507 17.0833H13.3214C13.2262 16.4181 12.6823 15.8978 12.0061 15.8389L11.8778 15.8333ZM12.7112 2.91663H6.8753C6.53013 2.91663 6.2503 3.19645 6.2503 3.54163V8.54037C6.2503 10.4971 7.83653 12.0833 9.79323 12.0833C11.7499 12.0833 13.3362 10.4971 13.3362 8.54037V3.54163C13.3362 3.19645 13.0563 2.91663 12.7112 2.91663ZM15.6312 4.58329H14.5862V8.73567C15.2529 8.6419 15.7749 8.09731 15.834 7.42008L15.8395 7.29163V4.79163C15.8395 4.693 15.771 4.61039 15.679 4.5888L15.6312 4.58329ZM5.0003 4.58329H3.95492C3.83986 4.58329 3.74658 4.67657 3.74658 4.79163V7.29163C3.74658 8.0276 4.29176 8.63623 5.0003 8.73572V4.58329Z" fill="white"/>
</svg>
